<svg width="363" height="19" viewBox="0 0 363 19" fill="none" xmlns="http://www.w3.org/2000/svg">
<g clip-path="url(#clip0_14_3)">
<path d="M3 11.6667L33.184 6.31928C34.7893 6.03489 36.4337 6.05497 38.0315 6.37848L60.8448 10.9974C63.0124 11.4363 65.2562 11.3149 67.3639 10.6447L69.7988 9.8705C71.0727 9.46543 72.4014 9.25926 73.7381 9.25926H104.917L135.378 11.5078C136.803 11.613 138.236 11.4825 139.619 11.1214L168.392 3.60923C169.935 3.20651 171.538 3.09096 173.123 3.26833L226.635 9.25926L257.751 15.2618C260.247 15.7433 262.83 15.4823 265.179 14.5111L275.499 10.2453C277.074 9.59428 278.761 9.25926 280.465 9.25926H302.567C304.714 9.25926 306.829 8.72716 308.72 7.71053L312.126 5.88019C315.523 4.05507 319.554 3.83171 323.131 5.27044L334.962 10.0286C337.603 11.0912 340.521 11.2569 343.266 10.5004L360 5.88889" stroke="#FF6B00" stroke-width="6" stroke-linecap="round" stroke-linejoin="round"/>
</g>
<defs>
<clipPath id="clip0_14_3">
<rect width="363" height="19" fill="white"/>
</clipPath>
</defs>
</svg>
